<?xml version="1.0" encoding="utf-8"?>
<!-- Generator: Adobe Illustrator 23.0.2, SVG Export Plug-In . SVG Version: 6.00 Build 0)  -->
<svg version="1.1" id="图层_1" xmlns="http://www.w3.org/2000/svg" xmlns:xlink="http://www.w3.org/1999/xlink" x="0px" y="0px"
	 viewBox="0 0 1024 1024" style="enable-background:new 0 0 1024 1024;" xml:space="preserve">
<path d="M920.9,205.9L801.6,86.7C787.1,72.2,767.6,64,747,64s-40.1,8.1-54.7,22.7L563.9,215c-14.6,14.6-22.7,34.2-22.7,54.8
	c0,20.7,8.1,40.1,22.7,54.8l100.4,100.5c-23.1,53.5-55.6,101.5-96.8,142.6c-41.1,41.3-89.2,73.9-142.5,97L324.6,564
	c-14.6-14.6-34-22.7-54.7-22.7c-20.7,0-40.1,8.1-54.7,22.7L86.7,692.2C72.2,706.8,64,726.4,64,747c0,20.7,8.1,40.1,22.7,54.8
	l119.2,119.2c24.9,24.9,59.1,39.1,94.3,39.1c7.3,0,14.3-0.6,21.5-1.8C470,933.8,617.2,854.8,736,736.1
	c118.7-119,197.6-266.1,222.2-414.5C965.3,279.6,951.2,236.2,920.9,205.9z"/>
</svg>
